<svg width="27" height="27" viewBox="0 0 27 27" fill="none" xmlns="http://www.w3.org/2000/svg">
<path d="M2.99855 19.1393C3.01811 21.2636 2.83355 23.3079 2.83319 25.4394C2.83319 25.4857 2.83323 25.5319 2.83333 25.5781L2 24.7448C4.59458 24.7393 7.24199 24.5696 9.84845 24.6019C12.4867 24.6347 15.1391 24.6819 17.78 24.7401C20.4236 24.7982 23.0681 24.8673 25.7148 24.9439C25.8114 24.9467 25.9117 24.9496 26 24.9524L25.3743 25.5781C25.4485 23.0344 25.5296 20.4857 25.6145 17.9403C25.6744 16.1456 25.7362 14.3488 25.7987 12.5542C25.8262 11.7664 25.8537 10.981 25.8814 10.1936C25.902 9.60616 25.9227 9.01873 25.9434 8.43131C25.9463 8.34965 25.9581 8.27141 25.9769 8.21372C25.9957 8.15604 26.0198 8.1235 26.0446 8.12358C26.0695 8.12369 26.0937 8.15647 26.1124 8.21435C26.1311 8.27221 26.1427 8.35059 26.1455 8.43226C26.1656 9.02464 26.1856 9.61701 26.2056 10.2094C26.2278 10.8674 26.2501 11.5242 26.2721 12.182C26.17 12.2855 26.0926 12.4277 26.0584 12.694C26.041 12.83 26.0337 13.0282 26.0527 13.1741C26.0697 13.3052 26.1001 13.4039 26.1291 13.4977C26.1594 13.5957 26.1881 13.6888 26.1983 13.8086C26.2155 14.0118 26.2589 14.205 26.3044 14.4079C26.321 14.4817 26.3379 14.5569 26.3539 14.6344C26.3747 15.2623 26.3953 15.8902 26.4157 16.5181C26.4048 16.7606 26.396 16.9836 26.4002 17.1728C26.404 17.3424 26.4255 17.4978 26.4524 17.6525C26.4555 17.7497 26.4586 17.8469 26.4617 17.9441C26.4818 18.5715 26.5016 19.199 26.5212 19.8266C26.494 20.3163 26.4675 20.8295 26.4559 21.4968C26.4509 21.7844 26.4361 22.0682 26.422 22.341C26.4011 22.7439 26.3815 23.1229 26.3962 23.4552C26.406 23.6773 26.3916 23.9109 26.3772 24.144C26.3579 24.4566 26.3386 24.7686 26.3779 25.0514C26.4026 25.2292 26.4327 25.3926 26.4605 25.5438C26.4626 25.5553 26.4647 25.5668 26.4668 25.5781L26.4553 26.0559L26 26.045C25.8001 26.0866 25.5644 26.1219 25.4013 26.1244C25.0335 26.1294 24.7368 26.1617 24.4577 26.1902C24.1343 26.2245 23.843 26.2532 23.6134 26.2223C23.5771 26.2176 23.5351 26.2113 23.4873 26.2042C23.226 26.1668 22.8309 26.107 22.2678 26.1399C22.0613 26.1516 21.8689 26.1821 21.6852 26.2119C21.4131 26.2554 21.1437 26.2976 20.8643 26.2788C20.8219 26.276 20.7775 26.2642 20.7369 26.2535C20.6853 26.2398 20.6399 26.2279 20.613 26.2382C20.533 26.2687 20.4097 26.3024 20.2784 26.339C20.1812 26.3659 20.0772 26.3945 19.9805 26.4244C19.2432 26.4414 18.513 26.4576 17.7743 26.4729C17.4425 26.48 17.095 26.4868 16.7645 26.4935C16.593 26.4477 16.4165 26.4063 16.2288 26.3751C15.9835 26.3342 15.6737 26.3217 15.2635 26.3055C14.9639 26.2936 14.6185 26.2796 14.2095 26.251C13.4614 26.1981 12.6883 26.21 12.1934 26.2384C12.089 26.2444 11.984 26.2508 11.8716 26.2577C11.4453 26.2842 10.9133 26.3173 9.90225 26.3538C8.94783 26.3883 8.13198 26.3972 7.52287 26.404C7.21337 26.4074 6.94988 26.4102 6.7527 26.4155C6.41726 26.4247 5.99243 26.4329 5.57829 26.4411C4.9197 26.4539 4.26137 26.4668 3.88912 26.4839C3.75786 26.49 3.61919 26.4975 3.46603 26.5056C3.07856 26.5263 2.61031 26.551 2 26.5669L0.987982 26.5425L1.01124 25.5781C1.01001 25.5301 1.00884 25.4812 1.00772 25.4312C0.991379 24.7021 1.00252 24.2501 1.02673 23.7806C1.03657 23.5898 1.07548 23.4214 1.11568 23.248C1.17273 23.0019 1.23227 22.7452 1.2145 22.3979C1.21035 22.3168 1.20108 22.2303 1.19135 22.1398C1.17347 21.9736 1.1541 21.7938 1.16259 21.6097C1.16556 21.5455 1.17612 21.489 1.18648 21.4335C1.19787 21.3726 1.209 21.3128 1.20963 21.245C1.21194 20.9921 1.20931 20.7459 1.20695 20.5271C1.2039 20.245 1.20137 20.0084 1.2106 19.8617C1.22708 19.6 1.21233 19.3139 1.19732 19.0242C1.18585 18.8029 1.1742 18.5793 1.17636 18.3629C1.18256 17.7444 1.15446 16.8938 1.10764 16.0174C1.08993 15.6858 1.11412 15.4048 1.14517 15.0448C1.16448 14.8209 1.18653 14.5664 1.20268 14.2501C1.21183 14.0707 1.19029 13.9188 1.17039 13.7782C1.15206 13.6486 1.13511 13.5285 1.14468 13.4053C1.15314 13.2965 1.18936 13.2277 1.22376 13.1624C1.26204 13.0897 1.29805 13.0213 1.29102 12.9068C1.28729 12.846 1.26917 12.7719 1.24765 12.6839C1.23913 12.6491 1.23012 12.6119 1.2212 12.5726C1.22855 12.5746 1.23512 12.5751 1.24009 12.5751C1.27523 12.5752 1.29373 12.4585 1.31186 12.3439C1.3191 12.2981 1.32625 12.2526 1.3344 12.2152C1.36442 12.0774 1.36931 11.8167 1.36791 11.6174C1.36733 11.5331 1.37823 11.4567 1.39094 11.3676C1.40223 11.2884 1.41498 11.1992 1.42238 11.0854C1.4266 11.0206 1.43679 10.9707 1.44529 10.9295C1.45144 10.8997 1.4567 10.8743 1.45809 10.8508C1.45927 10.8304 1.4492 10.8139 1.43786 10.7954C1.42969 10.7821 1.42085 10.7676 1.41507 10.7499C1.40127 10.7074 1.39711 10.6528 1.40155 10.6145C1.40359 10.5968 1.40751 10.5828 1.41142 10.569C1.41596 10.5528 1.42054 10.5367 1.42214 10.5146C1.42948 10.4129 1.41799 10.314 1.40605 10.2113C1.39294 10.0983 1.37931 9.98057 1.38948 9.84945C1.39268 9.80819 1.40003 9.76423 1.40715 9.72168C1.41461 9.67714 1.4218 9.63386 1.42372 9.59707C1.4315 9.44765 1.40638 9.30721 1.38327 9.178C1.3679 9.09208 1.35344 9.01099 1.35012 8.93574C1.34407 8.79779 1.3139 8.72373 1.29163 8.66912C1.2801 8.64083 1.27062 8.61774 1.26775 8.59353C1.26859 8.57134 1.26959 8.54883 1.27068 8.5268C1.27289 8.50658 1.27518 8.48568 1.27445 8.46608C1.2744 8.46459 1.27427 8.46313 1.27421 8.46165C1.28152 8.33828 1.29189 8.21709 1.30224 8.09667C1.32547 7.8262 1.34846 7.55905 1.3355 7.27658C1.33271 7.21571 1.32025 7.15369 1.3076 7.09061C1.29209 7.01333 1.27624 6.93426 1.27738 6.85372C1.2801 6.66177 1.30064 6.46801 1.32088 6.27716C1.35132 5.99012 1.38105 5.70958 1.34842 5.45169C1.33765 5.36658 1.31971 5.28353 1.30163 5.20025C1.29155 5.15385 1.28139 5.10719 1.2725 5.06014C1.289 5.07011 1.30449 5.07543 1.31893 5.08039C1.3487 5.0906 1.37418 5.0994 1.39582 5.14459C1.44697 5.2514 1.51738 5.37245 1.56873 5.35902C1.58266 5.35537 1.59818 5.35832 1.61381 5.36155C1.65302 5.36965 1.69306 5.37787 1.71117 5.27869C1.72338 5.21183 1.7514 5.04006 1.72141 4.93079C1.71488 4.90701 1.70192 4.89252 1.68753 4.87639C1.66167 4.84741 1.63105 4.81293 1.62393 4.7094C1.62273 4.69197 1.62164 4.67301 1.62064 4.65342C1.61662 4.5753 1.61218 4.48783 1.59139 4.45512C1.56745 4.41746 1.54002 4.4255 1.50804 4.43488C1.4664 4.44708 1.41693 4.46161 1.35731 4.38048C1.34553 4.36439 1.34149 4.33374 1.33843 4.31058C1.33627 4.29427 1.33454 4.2818 1.33099 4.28053C1.32692 4.27915 1.31844 4.28434 1.30772 4.29097C1.26988 4.31438 1.20378 4.35501 1.20098 4.18534C1.20022 4.13944 1.20337 4.08694 1.20622 4.03985C1.21041 3.97047 1.21386 3.91285 1.20305 3.90512C1.19894 3.90224 1.1945 3.90018 1.18989 3.89848C1.19119 3.84324 1.19249 3.78799 1.19379 3.73275C1.20668 3.6619 1.20558 3.56245 1.20414 3.4383C1.2038 3.40817 1.20348 3.37642 1.20329 3.34342C1.20596 3.23443 1.20861 3.12538 1.21133 3.0164C1.2168 2.92999 1.22571 2.83801 1.23985 2.74092C1.26818 2.54641 1.31491 2.37716 1.3606 2.2118C1.37986 2.14213 1.39897 2.07307 1.41641 2.00306C1.41856 2.03034 1.42109 2.05495 1.42458 2.07391C1.44844 2.20359 1.4954 2.25566 1.53863 2.30352C1.56738 2.33535 1.59449 2.36541 1.61199 2.41516C1.64403 2.50627 1.68151 2.49713 1.70922 2.49044C1.7236 2.48697 1.73537 2.48433 1.74237 2.49645C1.74797 2.50622 1.7506 2.5288 1.75333 2.55211C1.75571 2.57242 1.7582 2.59341 1.76272 2.60682C1.81758 2.76974 1.84943 2.72075 1.89578 2.64952C1.92134 2.61024 1.95134 2.56432 1.99204 2.54325C2.03514 2.52516 2.04775 2.53125 2.06491 2.61663C2.0862 2.55011 2.10748 2.48358 2.12876 2.41706C2.12738 2.39096 2.11407 2.37118 2.09196 2.34337C2.05248 2.2937 2.03805 2.13197 2.02677 2.00559C2.02155 1.94708 2.01698 1.89615 2.01093 1.86738C1.97873 1.71449 1.9339 1.75896 1.89444 1.79812C1.87272 1.81967 1.85262 1.83953 1.83717 1.82405C1.83056 1.81746 1.824 1.82689 1.81731 1.83639C1.81214 1.84373 1.80688 1.85127 1.80147 1.85157C1.76218 1.85357 1.73301 1.76312 1.70593 1.6792C1.69363 1.64106 1.68172 1.60433 1.6695 1.57812L1.67766 1.23985L2 1.24762C2.00682 1.24444 2.01292 1.24124 2.01816 1.238C2.02588 1.23322 2.03202 1.22835 2.03777 1.22362C2.04618 1.21671 2.05436 1.21013 2.06718 1.20449C2.09639 1.19164 2.15654 1.18298 2.22247 1.17354C2.25627 1.1687 2.29157 1.16364 2.32495 1.1577C2.36819 1.14999 2.38377 1.13445 2.40022 1.11822C2.41185 1.10675 2.42402 1.09493 2.44639 1.08519C2.48691 1.06759 2.56875 1.06124 2.6447 1.05534C2.67777 1.05277 2.70976 1.05022 2.73673 1.04693C2.74771 1.04559 2.75297 1.04292 2.75413 1.03926C2.8788 1.02696 2.99785 1.0144 3.11373 1.00209C3.69465 0.940405 4.1975 0.886922 4.94842 0.925689C5.09038 0.93302 5.24285 0.931555 5.39689 0.925689C5.88972 0.941101 6.38281 0.957014 6.87546 0.973334C6.97298 1.00874 7.09227 1.03847 7.23348 1.0618C7.4987 1.1056 7.77151 1.11496 8.09343 1.12602C8.33143 1.13419 8.59631 1.14331 8.90498 1.16793C9.42358 1.20931 9.95604 1.2443 10.5569 1.26249C11.1551 1.2806 11.84 1.29395 12.3245 1.29868C12.5887 1.30127 12.8661 1.33294 13.1247 1.36241C13.4884 1.40387 13.8148 1.44103 14.014 1.38715C14.0777 1.36993 14.1392 1.34003 14.1991 1.31099C14.2417 1.2903 14.2837 1.2701 14.3249 1.25506C14.4346 1.25973 14.5444 1.26435 14.6542 1.26907C14.8492 1.30498 15.1522 1.34348 15.4452 1.30343C15.5584 1.30838 15.6717 1.31331 15.781 1.3183C16.0197 1.32875 16.2532 1.33933 16.4889 1.34998C16.5658 1.3535 16.6435 1.35703 16.7213 1.36058C16.7221 1.36062 16.7228 1.36066 16.7235 1.3607C16.8803 1.36785 17.0382 1.37504 17.1935 1.38227C17.26 1.38536 17.3266 1.38845 17.3931 1.39153C17.5621 1.39937 17.7324 1.40723 17.8998 1.41517C17.9883 1.4194 18.0777 1.42359 18.1673 1.42784C18.3126 1.43475 18.4591 1.44169 18.6047 1.44868C18.8403 1.45998 19.0748 1.47141 19.3097 1.48292C19.3481 1.48483 19.385 1.4908 19.4122 1.49986C19.4393 1.50893 19.4546 1.52031 19.4545 1.53203C19.4545 1.54376 19.4391 1.55516 19.4118 1.5642C19.3847 1.57321 19.3478 1.57904 19.3094 1.58089C19.0743 1.59209 18.8395 1.60317 18.6038 1.61416C18.4581 1.62095 18.3117 1.6278 18.1664 1.63451C18.0768 1.63864 17.9874 1.64271 17.8988 1.64681C17.7314 1.65453 17.5609 1.66224 17.3918 1.66984C17.3253 1.67285 17.2588 1.67586 17.1923 1.67886C17.0365 1.6859 16.8782 1.69287 16.721 1.69982C16.7201 1.69986 16.7191 1.6999 16.7182 1.69994C16.6408 1.70336 16.5637 1.70678 16.4873 1.71018C16.2516 1.72052 16.0179 1.73076 15.7792 1.74088C15.6558 1.74635 15.5272 1.75169 15.3996 1.75709C15.3286 1.7601 15.2577 1.76312 15.188 1.76611C15.15 1.7677 15.1114 1.76928 15.0726 1.77086C14.1823 1.80833 13.2983 1.84437 12.4061 1.87894C11.5172 1.91352 10.6268 1.94667 9.73899 1.9785C8.84904 2.01033 7.96067 2.04079 7.07155 2.07001C5.38287 2.12554 3.69218 2.17809 2 2.227L2.64888 1.57812C2.76342 5.54032 2.8581 9.51064 2.92483 13.4821C2.9385 14.2906 2.95082 15.1201 2.96187 15.9301C2.97292 16.749 2.98273 17.551 2.99112 18.372C2.99374 18.6214 2.99619 18.877 2.99855 19.1393Z" fill="#F9FAFB"/>
<path d="M13.8384 13.0379C14.3407 12.6551 14.9423 12.4521 15.4579 12.0843C16.0981 11.6275 16.6458 11.0196 17.3063 10.5882C17.9631 10.1594 18.6314 9.74005 19.304 9.33111C19.9773 8.92165 20.656 8.5218 21.3403 8.1271C22.0233 7.73336 22.7119 7.34469 23.4021 6.96001C23.8709 6.69873 24.3413 6.43868 24.8116 6.17963C25.0181 6.06587 25.224 5.95262 25.4305 5.83911C25.5845 5.75448 25.7386 5.66984 25.8927 5.5852C25.9141 5.57346 25.9399 5.56957 25.9648 5.57488C25.9896 5.58022 26.0115 5.59419 26.0259 5.61444C26.0404 5.63472 26.0465 5.66001 26.0434 5.68525C26.0402 5.71045 26.0281 5.73348 26.0099 5.74986C25.8783 5.86847 25.7467 5.98709 25.6151 6.1057C25.4689 6.23742 25.323 6.36898 25.1768 6.50055C25.0924 6.43536 25.013 6.3969 24.9288 6.41507C24.8857 6.42436 24.8336 6.45269 24.8093 6.49334C24.7875 6.52985 24.7813 6.57163 24.7755 6.61139C24.7694 6.65298 24.7636 6.69246 24.7405 6.72141C24.7014 6.77056 24.6799 6.8392 24.6573 6.9113C24.6491 6.93754 24.6407 6.96427 24.6313 6.99067C24.4915 7.11601 24.3517 7.24124 24.2117 7.3663C24.1467 7.39934 24.0877 7.43071 24.0444 7.46679C24.0056 7.49915 23.9805 7.54354 23.9587 7.5921C23.937 7.61143 23.9153 7.63077 23.8936 7.6501C23.7536 7.7748 23.6134 7.89929 23.473 8.02363C23.3388 8.08604 23.1993 8.15316 23.0312 8.25897C22.9587 8.30457 22.8815 8.34159 22.8073 8.37721C22.6978 8.42981 22.5947 8.4793 22.5229 8.54864C22.4749 8.59499 22.41 8.6236 22.3453 8.65215C22.2585 8.69043 22.1718 8.72865 22.1263 8.80947C22.0976 8.86029 22.0756 8.91295 22.0552 8.96175C22.0228 9.0394 21.9945 9.10727 21.95 9.14234C21.8664 9.20821 21.8103 9.288 21.7608 9.35835C21.7013 9.44296 21.6514 9.51393 21.5749 9.5305C21.5633 9.53302 21.5495 9.53518 21.534 9.53757C21.452 9.55014 21.321 9.57025 21.2018 9.69575C21.1594 9.74044 21.1309 9.79823 21.103 9.85487C21.0623 9.93732 21.0229 10.0174 20.9434 10.0511C20.9315 10.0561 20.914 10.0541 20.898 10.0523C20.8777 10.0501 20.8599 10.0481 20.8595 10.0611C20.8585 10.0993 20.8482 10.148 20.8371 10.2009C20.829 10.2398 20.8203 10.2811 20.8145 10.3221C20.6468 10.4627 20.4785 10.6028 20.3098 10.7422C20.2325 10.8061 20.1551 10.8698 20.0775 10.9334C20.0092 10.9259 19.9426 10.9227 19.8794 10.9294C19.7968 10.9381 19.7133 10.9824 19.6056 11.0394C19.5264 11.0814 19.434 11.1302 19.3193 11.177C19.107 11.2636 18.9274 11.4065 18.8244 11.5149C18.8026 11.5379 18.7809 11.5612 18.7578 11.5863C18.6701 11.6814 18.5607 11.8002 18.3376 12.0045C18.1265 12.1976 17.9352 12.3453 17.7915 12.4562C17.7181 12.5128 17.6571 12.5598 17.6122 12.5985C17.5355 12.6646 17.4394 12.7433 17.3429 12.8223C17.1919 12.9459 17.04 13.0702 16.9597 13.1486C16.9311 13.1765 16.9017 13.2067 16.87 13.2393C16.7821 13.3295 16.6759 13.4385 16.517 13.5711C16.3501 13.7104 16.2344 13.7794 16.1068 13.8408C16.0549 13.8657 15.9916 13.8631 15.9263 13.8604C15.8336 13.8565 15.7369 13.8524 15.6633 13.9268C15.6461 13.9442 15.6306 13.9667 15.6143 13.9902C15.5845 14.0335 15.5523 14.0803 15.5029 14.1052C15.4856 14.1138 15.4658 14.115 15.4464 14.1162C15.425 14.1174 15.4041 14.1187 15.3873 14.1299C15.3248 14.1717 15.2668 14.2164 15.2153 14.2561C15.1489 14.3073 15.0931 14.3502 15.0523 14.368C14.9794 14.3998 14.9188 14.4612 14.8575 14.5235C14.8106 14.5711 14.7633 14.6192 14.7097 14.6548C14.5566 14.7566 14.3672 14.9263 14.1825 15.1158C14.1126 15.1875 14.0306 15.2163 13.9255 15.2533C13.8602 15.2762 13.7858 15.3022 13.6999 15.3437C13.6512 15.3673 13.627 15.411 13.6046 15.4515C13.5839 15.4888 13.5647 15.5234 13.5293 15.5368C13.4981 15.5487 13.4604 15.5312 13.4246 15.5144C13.3848 15.4959 13.3473 15.4784 13.3237 15.5039C13.3112 15.5174 13.3038 15.5449 13.295 15.5777C13.2916 15.5906 13.2878 15.6044 13.2835 15.6184C13.2797 15.6121 13.276 15.6067 13.2731 15.6026C13.2527 15.574 13.2137 15.5791 13.1755 15.5841C13.1602 15.5861 13.1451 15.5882 13.1313 15.588C13.0805 15.5874 13.0146 15.6285 12.9673 15.664C12.9472 15.679 12.9224 15.6834 12.8934 15.6884C12.8677 15.6929 12.8388 15.6979 12.807 15.7116C12.7888 15.7193 12.7708 15.7197 12.7559 15.7199C12.7451 15.72 12.736 15.7201 12.7295 15.723C12.7238 15.7256 12.7257 15.7366 12.7278 15.7491C12.7294 15.758 12.731 15.7677 12.7301 15.7755C12.7278 15.794 12.717 15.8069 12.7052 15.8099C12.6997 15.8112 12.6941 15.8105 12.6884 15.8097C12.6819 15.8088 12.6753 15.8078 12.6691 15.8104C12.6402 15.822 12.623 15.8484 12.6051 15.8758C12.5854 15.906 12.5648 15.9374 12.5272 15.9518C12.5154 15.9563 12.5005 15.958 12.486 15.9595C12.4709 15.9611 12.4563 15.9628 12.4463 15.9676C12.4056 15.987 12.3863 16.0317 12.3684 16.0729C12.3665 16.0773 12.3646 16.0816 12.3627 16.086L11.845 16.3958L11.5382 15.9979C11.5149 15.9907 11.4936 15.9831 11.479 15.9711C11.4469 15.9448 11.4098 15.9488 11.3824 15.9518C11.3682 15.9533 11.3566 15.9546 11.3496 15.9512C11.3458 15.9458 11.342 15.9402 11.3384 15.9346C11.336 15.9287 11.3335 15.9225 11.3291 15.9187C11.3287 15.9184 11.3284 15.9182 11.328 15.9179C11.3088 15.8859 11.2922 15.8522 11.2758 15.8188C11.2389 15.7437 11.2025 15.6695 11.1365 15.6161C11.1222 15.6046 11.1006 15.5993 11.0787 15.594C11.0517 15.5874 11.0242 15.5807 11.0089 15.5622C10.9726 15.5182 10.949 15.4618 10.9259 15.4062C10.891 15.3226 10.8569 15.2409 10.7812 15.2061C10.7563 15.1947 10.7264 15.1885 10.6964 15.1823C10.6796 15.1789 10.6628 15.1755 10.6468 15.1711C10.661 15.1622 10.6735 15.153 10.6852 15.1443C10.7093 15.1266 10.7299 15.1114 10.7549 15.1067C10.8141 15.0958 10.8904 15.0751 10.9257 15.0376C10.9353 15.0274 10.9474 15.0176 10.9596 15.0078C10.9902 14.9832 11.0215 14.9581 11.0151 14.9241C11.0107 14.9012 10.9971 14.8446 10.9531 14.8407C10.9435 14.8399 10.931 14.8454 10.9172 14.8515C10.8922 14.8626 10.8627 14.8756 10.8367 14.8576C10.8324 14.8546 10.8278 14.8511 10.8231 14.8475C10.8045 14.833 10.7837 14.8168 10.7618 14.8236C10.7366 14.8314 10.7179 14.8516 10.6961 14.8752C10.6677 14.9059 10.634 14.9424 10.5737 14.9646C10.5618 14.969 10.5526 14.965 10.5458 14.962C10.5409 14.9598 10.5371 14.9582 10.5342 14.9603C10.531 14.9628 10.5257 14.9696 10.5191 14.9783C10.4958 15.0089 10.455 15.0623 10.419 15.0269C10.4093 15.0173 10.4011 15.0036 10.3938 14.9914C10.383 14.9733 10.3741 14.9583 10.3645 14.9639C10.3609 14.966 10.3572 14.9685 10.3535 14.9713C10.3434 14.9582 10.3333 14.9452 10.3232 14.9322C10.3186 14.9079 10.2979 14.8868 10.272 14.8605C10.2657 14.8541 10.2592 14.8473 10.2524 14.8402C10.2326 14.8144 10.2128 14.7887 10.193 14.7629C10.1798 14.7402 10.168 14.714 10.159 14.6831C10.1411 14.6213 10.1419 14.5526 10.1426 14.4855C10.1429 14.4573 10.1433 14.4292 10.1422 14.4021C10.1492 14.4067 10.156 14.4104 10.1624 14.4122C10.206 14.4247 10.2511 14.4045 10.2927 14.386C10.3203 14.3736 10.3464 14.362 10.3693 14.3612C10.4112 14.3596 10.4371 14.3324 10.4563 14.3123C10.4662 14.3019 10.4744 14.2934 10.482 14.2913C10.4881 14.2897 10.4946 14.2929 10.5013 14.2962C10.5071 14.2991 10.5131 14.302 10.5191 14.3019C10.5923 14.3008 10.6061 14.2686 10.6261 14.2218C10.6372 14.196 10.6502 14.1657 10.6761 14.1337C10.7044 14.1007 10.7149 14.0936 10.7447 14.1008C10.7471 14.0718 10.7496 14.0429 10.752 14.014C10.7458 14.0092 10.732 14.0138 10.7101 14.0225C10.6709 14.0381 10.6279 14.0123 10.5943 13.9921C10.5788 13.9827 10.5652 13.9746 10.555 13.9724C10.5006 13.9604 10.4763 14.0003 10.4549 14.0355C10.4432 14.0548 10.4323 14.0727 10.4177 14.0797C10.4115 14.0827 10.4086 14.0892 10.4055 14.0958C10.4032 14.1009 10.4008 14.1061 10.3968 14.1098C10.3682 14.1366 10.3285 14.1364 10.2917 14.1361C10.2706 14.136 10.2504 14.1359 10.2338 14.1409C10.2287 14.1424 10.2239 14.1444 10.2192 14.1463C10.2124 14.1491 10.2059 14.1517 10.1992 14.1527C10.1838 14.1549 10.1654 14.1475 10.1452 14.1393C10.1349 14.1352 10.1241 14.1308 10.113 14.1275C10.0987 14.1231 10.0841 14.1302 10.0688 14.1375C10.058 14.1426 10.0468 14.1479 10.0351 14.1495C10.014 14.1525 9.99292 14.1387 9.97337 14.126C9.96486 14.1205 9.95658 14.1151 9.94875 14.1114C9.94557 14.1099 9.94254 14.1106 9.9396 14.1128C9.90558 14.0936 9.87248 14.0759 9.84021 14.0587C9.67845 13.9725 9.53836 13.8979 9.41694 13.7067C9.39398 13.6705 9.36242 13.638 9.32729 13.6081C9.24018 13.4893 9.15339 13.3702 9.06698 13.2509C9.07369 13.2056 9.07184 13.1594 9.06088 13.1127C9.04027 13.0249 8.99267 12.9586 8.9365 12.8804C8.89497 12.8225 8.84877 12.7582 8.80529 12.6737C8.73223 12.5319 8.65169 12.3913 8.54505 12.2469C8.43887 12.1032 8.31184 11.9436 8.21849 11.8339C8.1676 11.7741 8.13557 11.6918 8.10569 11.6151C8.06366 11.5072 8.02592 11.4104 7.94622 11.4029C7.92076 11.4005 7.88634 11.407 7.85288 11.4134C7.82905 11.418 7.8057 11.4223 7.78633 11.4234C7.76787 11.3961 7.74934 11.3689 7.73089 11.3415C7.71848 11.2745 7.68639 11.182 7.5982 11.1445C7.57923 11.1163 7.56023 11.0881 7.54206 11.0606C7.50208 11.0011 7.46323 10.9427 7.42401 10.8837C7.41124 10.8644 7.39833 10.845 7.38539 10.8255C7.38527 10.8253 7.38515 10.8251 7.38504 10.8249C7.35899 10.7856 7.33274 10.7461 7.30705 10.707C7.29604 10.6903 7.28502 10.6736 7.27401 10.6569C7.24601 10.6145 7.21779 10.5718 7.19022 10.5296C7.17564 10.5073 7.16087 10.4848 7.14611 10.4623C7.12217 10.4257 7.09804 10.3888 7.07409 10.3521C7.03536 10.2927 6.99695 10.2334 6.95851 10.174C6.95224 10.1643 6.94928 10.1521 6.95056 10.1401C6.95185 10.128 6.95721 10.117 6.96589 10.1091C6.97458 10.1013 6.9861 10.097 6.99823 10.0969C7.01033 10.0968 7.02202 10.101 7.03107 10.1082C7.08635 10.1523 7.14148 10.1965 7.19673 10.241C7.23088 10.2684 7.2652 10.296 7.29922 10.3234C7.32019 10.3404 7.34106 10.3573 7.36181 10.374C7.40097 10.4056 7.44077 10.4379 7.4802 10.47C7.49572 10.4826 7.51124 10.4952 7.52676 10.5078C7.5631 10.5373 7.59991 10.5674 7.63647 10.5973C7.63669 10.5975 7.63691 10.5977 7.63713 10.5979C7.65511 10.6126 7.67307 10.6272 7.69085 10.6418C7.74562 10.6866 7.79991 10.7311 7.85513 10.7768C7.88383 10.8003 7.91348 10.8249 7.94298 10.8494C7.95941 10.863 7.97582 10.8765 7.99195 10.8898C8.00074 10.8971 8.00961 10.9045 8.01854 10.912C8.22422 11.0826 8.4276 11.2527 8.63153 11.4256C8.8348 11.5978 9.03732 11.7713 9.23834 11.9451C9.43979 12.1194 9.63991 12.2942 9.83926 12.4701C10.7811 13.3007 11.7117 14.1466 12.6223 15.0124L11.5112 14.8937C11.8431 14.6181 12.1771 14.345 12.5132 14.075C12.7008 13.9242 12.8942 13.7709 13.0836 13.622C13.2752 13.4716 13.4635 13.3251 13.6571 13.1765C13.7159 13.1313 13.7763 13.0851 13.8384 13.0379Z" fill="#F9FAFB"/>
</svg>
