<svg width="147" height="177" viewBox="0 0 147 177" fill="none" xmlns="http://www.w3.org/2000/svg">
<path d="M30.6559 96.0658C30.6536 96.2643 31.5519 97.3541 31.8743 97.4835C33.9992 98.357 56.3106 87.5504 59.6426 85.6826C83.2825 72.4402 106.738 44.7976 106.17 16.3871C105.997 7.68512 101.548 1.94425 95.0749 11.0813C90.9671 16.8834 87.6899 26.0036 83.909 32.4311C71.9435 52.7752 55.9377 72.1681 38.776 88.2514C37.2263 89.704 30.6632 94.4846 30.6559 96.0658Z" fill="#36BC7D"/>
<path d="M98.592 102.42C93.9363 97.7378 77.5435 100.18 71.5446 101.742C57.3155 105.449 43.4341 112.028 28.4268 113.67C22.5468 118.281 35.8451 117.475 38.5418 117.56C51.2889 117.962 87.7881 118.821 96.8055 110.343C99.0925 108.197 101.294 105.135 98.592 102.42Z" fill="#36BC7D"/>
<path d="M32.2827 136.731C29.7614 134.734 27.061 133.187 23.9218 132.408C17.5517 130.816 17.9625 133.775 19.2232 138.699C20.6028 144.106 26.4161 157.258 30.358 160.977C35.4163 165.748 44.0447 167.32 44.5801 158.358C44.9931 151.463 37.496 140.863 32.275 136.733L32.2827 136.731Z" fill="#36BC7D"/>
</svg>
