<svg width="147" height="177" viewBox="0 0 147 177" fill="none" xmlns="http://www.w3.org/2000/svg">
<path d="M116.348 96.0658C116.35 96.2643 115.452 97.3541 115.13 97.4835C113.005 98.357 90.6933 87.5504 87.3613 85.6826C63.7214 72.4402 40.2658 44.7976 40.8343 16.3871C41.0073 7.68513 45.4556 1.94425 51.929 11.0813C56.0368 16.8834 59.314 26.0036 63.0949 32.4311C75.0604 52.7752 91.0662 72.1681 108.228 88.2514C109.778 89.7039 116.341 94.4846 116.348 96.0658Z" fill="#36BC7D"/>
<path d="M48.4119 102.42C53.0676 97.7378 69.4604 100.18 75.4593 101.742C89.6884 105.449 103.57 112.028 118.577 113.67C124.457 118.281 111.159 117.475 108.462 117.56C95.715 117.962 59.2158 118.821 50.1984 110.343C47.9114 108.197 45.7099 105.135 48.4119 102.42Z" fill="#36BC7D"/>
<path d="M114.721 136.731C117.243 134.734 119.943 133.187 123.082 132.408C129.452 130.816 129.041 133.775 127.781 138.699C126.401 144.106 120.588 157.258 116.646 160.977C111.588 165.748 102.959 167.32 102.424 158.358C102.011 151.463 109.508 140.863 114.729 136.733L114.721 136.731Z" fill="#36BC7D"/>
</svg>
