<svg width="223" height="45" viewBox="0 0 223 45" fill="none" xmlns="http://www.w3.org/2000/svg">
<path d="M32.2471 31.1738L27.6528 29.9774C26.5512 29.6923 25.3583 30.1036 24.7995 30.9822C23.354 33.2489 21.1401 34.5574 18.3781 34.5574C14.5361 34.5574 10.1835 31.0757 10.1835 22.9298C10.1835 14.784 13.945 11.134 18.2545 11.134C20.9037 11.134 23.0047 12.4753 24.4502 14.756C25.0789 15.7421 26.4814 16.1346 27.6528 15.6533L31.9247 13.9007C33.1338 13.4007 33.6657 12.1575 33.123 11.0966C30.2858 5.56326 25.1863 1.13281 18.2545 1.13281C7.14212 1.13281 0.548828 10.9097 0.548828 22.9298C0.548828 34.95 6.80359 44.783 18.2545 44.783C26.4169 44.783 31.3283 39.6608 33.8377 33.9966C34.3535 32.8329 33.6227 31.529 32.2471 31.1738Z" fill="#FF6D79"/>
<path d="M49.7645 13.8857C41.8224 13.8857 37.1367 20.681 37.1367 29.1633C37.1367 37.6456 41.8224 44.5016 49.7645 44.5016C57.7065 44.5016 62.4835 37.6456 62.4835 29.1633C62.4835 20.681 57.8785 13.8857 49.7645 13.8857ZM49.8074 35.3977C47.6097 35.3977 46.3469 32.9862 46.3469 29.1633C46.3469 25.3404 47.6097 22.985 49.8074 22.985C52.0052 22.985 53.2734 25.4572 53.2734 29.1633C53.2734 32.8694 52.0482 35.3977 49.8074 35.3977Z" fill="#FF6D79"/>
<path d="M78.3226 13.8857C70.3805 13.8857 65.6895 20.681 65.6895 29.1633C65.6895 37.6456 70.3805 44.5016 78.3226 44.5016C86.2646 44.5016 91.0363 37.6456 91.0363 29.1633C91.0363 20.681 86.4312 13.8857 78.3226 13.8857ZM78.3655 35.3977C76.1678 35.3977 74.8996 32.9862 74.8996 29.1633C74.8996 25.3404 76.1678 22.985 78.3655 22.985C80.5633 22.985 81.8261 25.4572 81.8261 29.1633C81.8261 32.8694 80.6063 35.3977 78.3655 35.3977Z" fill="#FF6D79"/>
<path d="M130.908 14.7275H126.744C125.384 14.7275 124.282 15.6856 124.282 16.8679V41.7962C124.282 42.9786 125.384 43.9366 126.744 43.9366H130.908C132.267 43.9366 133.369 42.9786 133.369 41.7962V16.8679C133.369 15.6856 132.267 14.7275 130.908 14.7275ZM128.807 0.795898C125.975 0.795898 123.777 3.21208 123.777 6.24516C123.777 9.27823 125.975 11.6944 128.807 11.6944C131.639 11.6944 133.831 9.27823 133.831 6.24516C133.831 3.21208 131.59 0.795898 128.807 0.795898Z" fill="#FF6D79"/>
<path d="M161.282 1.80566H157.332C155.973 1.80566 154.871 2.76372 154.871 3.94611V25.402C154.871 31.2438 152.974 34.7816 150.481 34.7816C148.326 34.7816 146.891 32.7019 146.891 28.3229C146.891 25.0655 147.778 22.3128 149.256 22.3128C150.352 22.3128 150.819 23.9392 150.819 25.1216V25.1356C150.819 25.7291 151.711 25.9535 152.077 25.4487C152.673 24.6168 153.098 23.2615 153.098 21.2426C153.098 17.4805 151.029 13.8866 146.848 13.8866C141.523 13.8866 137.805 20.2331 137.805 28.9959C137.805 36.0762 140.169 44.5024 147.482 44.5024C154.011 44.5024 156.838 36.0528 157.02 31.8373C157.026 31.599 157.251 31.4121 157.525 31.4121C157.8 31.4121 158.036 31.613 158.036 31.856V31.8654C157.891 38.2774 154.661 40.9459 154.661 42.8153C154.661 43.5444 154.747 43.9369 155.887 43.9369H161.282C162.641 43.9369 163.743 42.9789 163.743 41.7965V3.94611C163.743 2.76372 162.641 1.80566 161.282 1.80566Z" fill="#FF6D79"/>
<path d="M190.74 35.7248L187.956 34.1312C186.914 33.533 185.506 33.7059 184.716 34.5471C183.899 35.4164 182.792 35.9632 181.615 35.9632C179.299 35.9632 177.252 34.5051 177.102 30.6868C177.091 30.4392 177.327 30.2288 177.612 30.2288H189.928C191.325 30.2288 192.443 29.224 192.389 28.0089C192.013 19.5593 187.247 13.8857 180.476 13.8857C172.91 13.8857 168.053 21.6904 168.053 29.4998C168.053 38.1504 173.335 44.5016 180.938 44.5016C185.538 44.5016 189.429 42.2443 191.583 38.4728C192.142 37.5008 191.782 36.3184 190.74 35.7248ZM181.105 22.7607C183.614 22.7607 184.786 24.9104 184.969 26.6536C184.995 26.9154 184.764 27.1397 184.463 27.1397H177.752C177.451 27.1397 177.22 26.92 177.247 26.6583C177.408 24.9151 178.483 22.7607 181.105 22.7607Z" fill="#FF6D79"/>
<path d="M219.576 14.727H215.417C214.058 14.727 212.956 15.685 212.956 16.8674V25.4012C212.956 31.3551 211.054 34.7808 208.776 34.7808C206.621 34.7808 205.186 32.0842 205.186 27.7052C205.186 25.0086 206.073 22.312 207.551 22.312C208.647 22.312 209.114 23.9384 209.114 25.1207V25.1348C209.114 25.7283 210.006 25.9526 210.372 25.4479C210.968 24.616 211.393 23.2607 211.393 21.2418C211.393 17.4796 209.324 13.8857 205.143 13.8857C199.818 13.8857 196.1 20.2323 196.1 28.9951C196.1 36.1875 198.469 44.5016 205.777 44.5016C212.306 44.5016 215.133 36.052 215.315 31.8365C215.326 31.5982 215.546 31.4112 215.82 31.4112C216.094 31.4112 216.331 31.6122 216.331 31.8552V31.8646C216.186 38.2765 212.956 40.9451 212.956 42.8145C212.956 43.5435 213.042 43.9361 214.181 43.9361H219.576C220.936 43.9361 222.038 42.9781 222.038 41.7957V16.8674C222.038 15.685 220.936 14.727 219.576 14.727Z" fill="#FF6D79"/>
<path d="M110.661 33.0384L118.587 4.44617C118.958 3.10021 117.787 1.80566 116.196 1.80566H112.177C111.037 1.80566 110.049 2.48332 109.785 3.44605L104.45 29.3464C104.24 30.0941 102.977 29.9633 102.977 29.1922V3.94611C102.977 2.76372 101.876 1.80566 100.516 1.80566H96.3517C94.9922 1.80566 93.8906 2.76372 93.8906 3.94611V41.7965C93.8906 42.9789 94.9922 43.9369 96.3517 43.9369H100.516C101.876 43.9369 102.977 42.9789 102.977 41.7965V37.7726C102.977 37.1557 103.875 36.8847 104.31 37.3707L109.501 43.1191C109.968 43.6332 110.683 43.9369 111.435 43.9369H114.262C116.314 43.9369 117.464 41.8806 116.196 40.4739L111.123 34.8611C110.656 34.347 110.489 33.674 110.667 33.0384H110.661Z" fill="#FF6D79"/>
</svg>
