<svg width="79" height="16" viewBox="0 0 79 16" fill="none" xmlns="http://www.w3.org/2000/svg">
<path d="M11.4732 10.9774L9.84425 10.5525C9.45368 10.4512 9.03073 10.5973 8.83259 10.9093C8.32008 11.7143 7.53514 12.179 6.55586 12.179C5.19363 12.179 3.65041 10.9425 3.65041 8.0496C3.65041 5.15668 4.98406 3.86043 6.51204 3.86043C7.45131 3.86043 8.19624 4.33677 8.70875 5.14672C8.93165 5.49692 9.42892 5.63634 9.84425 5.46539L11.3589 4.84299C11.7876 4.6654 11.9762 4.22391 11.7838 3.84715C10.7778 1.88202 8.96976 0.308594 6.51204 0.308594C2.57207 0.308594 0.234375 3.78076 0.234375 8.0496C0.234375 12.3184 2.45204 15.8105 6.51204 15.8105C9.40605 15.8105 11.1474 13.9914 12.0371 11.9798C12.22 11.5666 11.9609 11.1035 11.4732 10.9774Z" fill="#FF6D79"/>
<path d="M17.6843 4.83789C14.8684 4.83789 13.207 7.25115 13.207 10.2636C13.207 13.276 14.8684 15.7108 17.6843 15.7108C20.5002 15.7108 22.1939 13.276 22.1939 10.2636C22.1939 7.25115 20.5611 4.83789 17.6843 4.83789ZM17.6995 12.4776C16.9203 12.4776 16.4726 11.6212 16.4726 10.2636C16.4726 8.9059 16.9203 8.06939 17.6995 8.06939C18.4787 8.06939 18.9284 8.94739 18.9284 10.2636C18.9284 11.5797 18.494 12.4776 17.6995 12.4776Z" fill="#FF6D79"/>
<path d="M27.8092 4.83789C24.9933 4.83789 23.3301 7.25115 23.3301 10.2636C23.3301 13.276 24.9933 15.7108 27.8092 15.7108C30.6251 15.7108 32.3169 13.276 32.3169 10.2636C32.3169 7.25115 30.6842 4.83789 27.8092 4.83789ZM27.8245 12.4776C27.0452 12.4776 26.5956 11.6212 26.5956 10.2636C26.5956 8.9059 27.0452 8.06939 27.8245 8.06939C28.6037 8.06939 29.0514 8.94739 29.0514 10.2636C29.0514 11.5797 28.6189 12.4776 27.8245 12.4776Z" fill="#FF6D79"/>
<path d="M46.454 5.13712H44.9775C44.4954 5.13712 44.1049 5.47737 44.1049 5.89728V14.7503C44.1049 15.1702 44.4954 15.5105 44.9775 15.5105H46.454C46.936 15.5105 47.3266 15.1702 47.3266 14.7503V5.89728C47.3266 5.47737 46.936 5.13712 46.454 5.13712ZM45.7091 0.189453C44.705 0.189453 43.9258 1.04754 43.9258 2.1247C43.9258 3.20187 44.705 4.05995 45.7091 4.05995C46.7131 4.05995 47.4904 3.20187 47.4904 2.1247C47.4904 1.04754 46.696 0.189453 45.7091 0.189453Z" fill="#FF6D79"/>
<path d="M57.2223 0.547852H55.822C55.34 0.547852 54.9494 0.888097 54.9494 1.30801V8.92785C54.9494 11.0025 54.2768 12.2589 53.3928 12.2589C52.6288 12.2589 52.1201 11.5204 52.1201 9.96519C52.1201 8.80835 52.4345 7.83077 52.9584 7.83077C53.3471 7.83077 53.5129 8.40835 53.5129 8.82827V8.83325C53.5129 9.04403 53.8291 9.1237 53.9587 8.94445C54.1702 8.64902 54.3207 8.16769 54.3207 7.45069C54.3207 6.1146 53.5872 4.83827 52.1049 4.83827C50.2168 4.83827 48.8984 7.09219 48.8984 10.2042C48.8984 12.7187 49.7367 15.7112 52.3297 15.7112C54.6446 15.7112 55.6467 12.7104 55.7115 11.2133C55.7134 11.1287 55.7934 11.0623 55.8906 11.0623C55.9877 11.0623 56.0716 11.1336 56.0716 11.2199V11.2233C56.0201 13.5004 54.8751 14.4481 54.8751 15.112C54.8751 15.3709 54.9056 15.5104 55.3095 15.5104H57.2223C57.7043 15.5104 58.0949 15.1701 58.0949 14.7502V1.30801C58.0949 0.888097 57.7043 0.547852 57.2223 0.547852Z" fill="#FF6D79"/>
<path d="M67.6668 12.5938L66.6799 12.0279C66.3103 11.8154 65.8112 11.8768 65.5311 12.1756C65.2415 12.4843 64.849 12.6785 64.4318 12.6785C63.6106 12.6785 62.8848 12.1606 62.8314 10.8046C62.8276 10.7167 62.9114 10.642 63.0124 10.642H67.3792C67.8745 10.642 68.2708 10.2851 68.2517 9.85361C68.1184 6.85281 66.4285 4.83789 64.0279 4.83789C61.3454 4.83789 59.623 7.60965 59.623 10.3831C59.623 13.4552 61.4959 15.7108 64.1917 15.7108C65.8226 15.7108 67.202 14.9092 67.966 13.5698C68.1641 13.2245 68.0365 12.8046 67.6668 12.5938ZM64.2508 7.98973C65.1405 7.98973 65.5559 8.7532 65.6206 9.37229C65.6302 9.46523 65.5483 9.5449 65.4416 9.5449H63.0619C62.9553 9.5449 62.8733 9.46689 62.8829 9.37395C62.94 8.75486 63.3211 7.98973 64.2508 7.98973Z" fill="#FF6D79"/>
<path d="M77.8922 5.13664H76.4176C75.9356 5.13664 75.545 5.47689 75.545 5.8968V8.92748C75.545 11.042 74.8706 12.2586 74.0627 12.2586C73.2988 12.2586 72.7901 11.3009 72.7901 9.74573C72.7901 8.78806 73.1044 7.83039 73.6284 7.83039C74.017 7.83039 74.1828 8.40798 74.1828 8.82789V8.83287C74.1828 9.04366 74.499 9.12333 74.6286 8.94407C74.8401 8.64864 74.9906 8.16732 74.9906 7.45031C74.9906 6.11423 74.2571 4.83789 72.7748 4.83789C70.8868 4.83789 69.5684 7.09181 69.5684 10.2038C69.5684 12.7581 70.4086 15.7108 72.9996 15.7108C75.3145 15.7108 76.3166 12.71 76.3814 11.2129C76.3852 11.1283 76.4633 11.0619 76.5605 11.0619C76.6576 11.0619 76.7415 11.1333 76.7415 11.2196V11.2229C76.69 13.5 75.545 14.4478 75.545 15.1116C75.545 15.3706 75.5755 15.51 75.9794 15.51H77.8922C78.3742 15.51 78.7648 15.1697 78.7648 14.7498V5.8968C78.7648 5.47689 78.3742 5.13664 77.8922 5.13664Z" fill="#FF6D79"/>
<path d="M39.2762 11.6399L42.0864 1.4856C42.2179 1.0076 41.8025 0.547852 41.2386 0.547852H39.8135C39.4096 0.547852 39.059 0.788513 38.9657 1.13042L37.0738 10.3287C36.9995 10.5942 36.5518 10.5478 36.5518 10.2739V1.30801C36.5518 0.888097 36.1612 0.547852 35.6792 0.547852H34.2027C33.7206 0.547852 33.3301 0.888097 33.3301 1.30801V14.7502C33.3301 15.1701 33.7206 15.5104 34.2027 15.5104H35.6792C36.1612 15.5104 36.5518 15.1701 36.5518 14.7502V13.3212C36.5518 13.1021 36.87 13.0058 37.0243 13.1784L38.8647 15.2199C39.0305 15.4025 39.2839 15.5104 39.5506 15.5104H40.5527C41.2805 15.5104 41.6882 14.7801 41.2386 14.2805L39.4401 12.2872C39.2743 12.1046 39.2153 11.8656 39.2781 11.6399H39.2762Z" fill="#FF6D79"/>
</svg>
