<svg width="20" height="24" viewBox="0 0 20 24" fill="none" xmlns="http://www.w3.org/2000/svg">
<path d="M5.66466 8.16384C5.71765 8.15222 5.76422 8.12564 5.80276 8.09076L5.66466 8.16384Z" fill="#FF6D79"/>
<path d="M10.6411 6.37991C10.6411 6.37991 10.654 6.38157 10.6604 6.38157C10.7086 6.38157 10.7584 6.37161 10.8033 6.35001L10.6411 6.37991ZM5.66466 8.16384C5.71765 8.15222 5.76422 8.12564 5.80276 8.09076L5.66466 8.16384Z" fill="#FF6D79"/>
<path d="M18.8662 13.3678L18.6928 12.8346L18.2962 13.22C18.2062 13.3097 18.1002 13.3761 17.983 13.416C17.5141 13.5821 16.9665 13.3014 16.6775 12.7483L16.5233 12.4509L16.2246 12.5921C16.1749 12.617 16.1186 12.6386 16.0624 12.6586C15.0716 13.0107 13.962 12.3862 13.5927 11.2666C13.4754 10.9112 13.4417 10.5325 13.4963 10.172L13.5397 9.89296L13.286 9.785C13.0114 9.6654 12.6533 9.43286 12.5103 8.99934C12.4606 8.84984 12.4429 8.69205 12.4557 8.53093L12.4879 8.16883L12.1378 8.13893C11.7283 8.10571 11.3188 8.10238 10.9093 8.13062L10.3489 6.43472L10.6411 6.37991L10.8033 6.35001L12.1474 6.09587H12.157C12.157 6.09587 12.1699 6.09255 12.1747 6.09089C12.2968 6.06597 12.4156 6.03109 12.5312 5.99123C14.0471 5.45472 14.8581 3.74553 14.3394 2.17753C13.8223 0.609527 12.1683 -0.230948 10.6524 0.305561C10.2654 0.441764 9.9137 0.661019 9.61822 0.945053C9.16859 0.549731 8.63706 0.265696 8.06056 0.116205C7.34757 -0.0665074 6.60086 -0.033287 5.90392 0.212544C5.20539 0.460036 4.59517 0.90685 4.14072 1.50149C3.77298 1.98485 3.51926 2.54461 3.39721 3.14092C2.99576 3.10438 2.58787 3.15421 2.20087 3.29207C1.467 3.55119 0.874447 4.09102 0.534009 4.81024C0.191966 5.53279 0.14058 6.34669 0.39109 7.10577C0.643206 7.86486 1.1651 8.47777 1.86043 8.83157C2.2651 9.03754 2.70028 9.14052 3.13867 9.14052C3.45502 9.14052 3.77137 9.08571 4.07969 8.97774C4.19371 8.93622 4.30772 8.88805 4.41853 8.83157C4.42334 8.82991 4.42816 8.82659 4.43458 8.82493L5.66305 8.1655L5.80115 8.09076L6.03079 7.96784L6.58962 9.6571C5.46714 10.4345 4.54699 11.4759 3.90787 12.7034C2.90743 14.6319 2.71955 16.7928 3.37955 18.7877C4.03794 20.7843 5.46553 22.3755 7.39735 23.2642C8.45881 23.7542 9.60056 24 10.7584 24C11.701 24 12.6516 23.8372 13.5766 23.51C15.6289 22.7858 17.3102 21.3357 18.3074 19.4256C19.3094 17.5104 19.5054 15.3594 18.8646 13.3678H18.8662ZM5.45911 7.08916C5.11385 7.01442 4.88101 6.93469 4.83123 6.90977C4.71239 6.80513 4.56145 6.74865 4.40407 6.74865C4.2178 6.74865 4.03794 6.83004 3.91108 6.97289C3.79064 7.1091 3.72802 7.28516 3.73444 7.46954C3.74247 7.63896 3.8067 7.7951 3.9159 7.91469C3.8597 7.9396 3.8051 7.96286 3.7505 7.98113C3.55137 8.05255 3.34422 8.08743 3.13707 8.08743C2.84962 8.08743 2.57021 8.021 2.30846 7.88811C1.85722 7.65723 1.51678 7.25859 1.35459 6.76693C1.1924 6.27194 1.22452 5.74208 1.44612 5.27533C1.66773 4.80692 2.05313 4.45645 2.53167 4.28702C2.72919 4.21726 2.93473 4.18238 3.14189 4.18238C3.27678 4.18238 3.41167 4.19733 3.54335 4.22723C3.58991 4.23719 3.63809 4.24384 3.68626 4.24384C3.82437 4.24384 3.95926 4.19899 4.07648 4.11262C4.22904 3.99967 4.3286 3.82526 4.35108 3.62926C4.47312 2.5197 5.21181 1.5696 6.23312 1.20749C6.52217 1.10617 6.82407 1.05468 7.13078 1.05468C7.89034 1.05468 8.62742 1.37526 9.15253 1.93336C9.27779 2.06624 9.45122 2.14265 9.62946 2.14265H9.65355C9.84304 2.136 10.0213 2.04631 10.1449 1.89516C10.3649 1.62275 10.654 1.41678 10.9816 1.30051C11.1791 1.23075 11.383 1.19587 11.5902 1.19587C12.3979 1.19587 13.1157 1.72573 13.3775 2.51638C13.7131 3.53458 13.1864 4.64746 12.202 4.99462C12.149 5.01455 12.0912 5.03116 12.0318 5.04611C12.0639 4.69065 11.823 4.36011 11.4762 4.29699C11.4392 4.29201 11.4023 4.28868 11.3654 4.28868C11.0506 4.28868 10.7825 4.51292 10.7134 4.82519C10.6797 4.8933 10.5448 5.09926 10.3216 5.37167L9.80289 5.46801H9.79968L8.96304 5.62747C8.60012 5.69557 8.35925 6.05601 8.42509 6.43306C8.4829 6.76028 8.7591 6.99947 9.08348 6.99947C9.12362 6.99947 9.16377 6.99615 9.20231 6.98784L9.44158 6.94299L9.77399 7.94625C9.35968 8.0293 8.94859 8.14225 8.54874 8.28344C8.14567 8.42794 7.75385 8.59737 7.37969 8.79337L7.04888 7.7951L7.301 7.66055C7.45998 7.57584 7.57721 7.43133 7.6318 7.25527C7.6848 7.0792 7.67034 6.8915 7.58684 6.72706C7.47122 6.49618 7.24319 6.35333 6.99429 6.35333C6.8867 6.35333 6.78071 6.37991 6.68597 6.4314L5.45911 7.08916ZM13.249 22.515C12.4365 22.8024 11.5982 22.9486 10.76 22.9486C9.73063 22.9486 8.73822 22.731 7.81326 22.3058C6.14159 21.5334 4.90991 20.163 4.34305 18.4472C3.37313 15.5122 4.60159 12.2084 7.33472 10.4112C7.35881 10.3979 7.3829 10.3813 7.40538 10.3647C7.89837 10.0491 8.4283 9.78998 8.98071 9.59398C9.53793 9.39798 10.1096 9.26676 10.6781 9.2053H10.6909L10.7134 9.20198C10.7184 9.20111 10.7234 9.2007 10.7287 9.20027C10.7335 9.19987 10.7385 9.19945 10.7439 9.19866H10.8708L10.882 9.18537C11.0699 9.17042 11.2626 9.16378 11.4569 9.16378H11.4971C11.5115 9.22357 11.5276 9.28171 11.5468 9.33984C11.7042 9.81656 12.0157 10.2202 12.4541 10.5142C12.4525 10.8846 12.5119 11.25 12.6308 11.6055C13.066 12.9227 14.2173 13.8096 15.4972 13.8096C15.7059 13.8096 15.9115 13.7847 16.1138 13.7382C16.5346 14.2282 17.1175 14.5156 17.7084 14.5156C17.8401 14.5156 17.9718 14.5006 18.0986 14.4724C18.7426 17.8227 16.6694 21.3075 13.249 22.515Z" fill="#FF6D79"/>
<path d="M10.6411 6.37991C10.6411 6.37991 10.654 6.38157 10.6604 6.38157C10.7086 6.38157 10.7584 6.37161 10.8033 6.35001L10.6411 6.37991Z" fill="#FF6D79"/>
<path fill-rule="evenodd" clip-rule="evenodd" d="M10.76 22.9486C11.5982 22.9486 12.4365 22.8024 13.249 22.515C16.6694 21.3075 18.7426 17.8227 18.0986 14.4724C17.9718 14.5006 17.8401 14.5156 17.7084 14.5156C17.1175 14.5156 16.5346 14.2282 16.1138 13.7382C15.9115 13.7847 15.7059 13.8096 15.4972 13.8096C14.2173 13.8096 13.066 12.9227 12.6308 11.6055C12.5119 11.25 12.4525 10.8846 12.4541 10.5142C12.0157 10.2202 11.7042 9.81656 11.5468 9.33984C11.5276 9.28171 11.5115 9.22357 11.4971 9.16378H11.4569C11.2626 9.16378 11.0699 9.17042 10.882 9.18537L10.8708 9.19866H10.7439C10.7385 9.19945 10.7335 9.19987 10.7287 9.20027C10.7234 9.2007 10.7184 9.20111 10.7134 9.20198L10.6909 9.2053H10.6781C10.1096 9.26676 9.53793 9.39798 8.98071 9.59398C8.4283 9.78998 7.89837 10.0491 7.40538 10.3647C7.3829 10.3813 7.35881 10.3979 7.33472 10.4112C4.60159 12.2084 3.37313 15.5122 4.34305 18.4472C4.90991 20.163 6.14159 21.5334 7.81326 22.3058C8.73822 22.731 9.73063 22.9486 10.76 22.9486ZM7.20786 13.313C7.19823 13.5073 7.18699 13.705 7.12917 13.891C7.07297 14.0787 6.96377 14.2548 6.79998 14.3511C6.56874 14.489 6.27808 14.4425 6.02275 14.3611C5.83808 14.303 5.65662 14.2249 5.50407 14.1036C5.35151 13.9807 5.22947 13.808 5.19575 13.612C5.154 13.3645 5.25516 13.1087 5.41093 12.9177C5.5667 12.7283 5.77064 12.5788 5.98421 12.4725C6.03477 12.4474 6.08226 12.4198 6.12872 12.3929C6.2756 12.3077 6.41215 12.2285 6.60246 12.2499C6.82407 12.2749 7.02961 12.4227 7.12757 12.6287C7.22713 12.8363 7.2191 13.0805 7.20786 13.313ZM10.4934 12.2317C10.4276 12.421 10.2895 12.5921 10.1048 12.6552C9.62143 12.8213 9.39983 12.24 9.61983 11.8712C9.73705 11.6736 9.92975 11.539 10.116 11.4111C10.206 11.348 10.3184 11.2832 10.4179 11.3297C10.5239 11.3763 10.5496 11.5174 10.556 11.6354C10.5657 11.8364 10.5608 12.0423 10.4934 12.2317ZM13.4835 14.8544C13.3871 15.1119 13.0965 15.2929 12.8427 15.2066C12.6918 15.1567 12.5778 15.0272 12.4911 14.8893C12.2646 14.5372 12.186 14.0538 12.5328 13.7532C12.8411 13.4857 13.1687 13.793 13.3566 14.0721C13.5092 14.298 13.5782 14.597 13.4835 14.8544ZM16.3708 17.5453C16.1444 17.7064 15.8714 17.7778 15.6049 17.8475L15.6048 17.8476C15.3511 17.9124 15.0765 17.9755 14.8356 17.8742C14.6814 17.8094 14.5578 17.6815 14.4695 17.5353C14.2559 17.1782 14.2543 16.6982 14.4662 16.3394C14.6172 16.0852 14.8613 15.8992 15.1246 15.7763C15.1396 15.7692 15.1558 15.7614 15.1729 15.7532C15.3683 15.659 15.6902 15.5039 15.8778 15.6185C15.9341 15.6532 15.9779 15.7111 16.0199 15.7665C16.0342 15.7853 16.0482 15.8039 16.0624 15.8211C16.1289 15.9012 16.1972 15.9799 16.2655 16.0582C16.2752 16.0694 16.2849 16.0805 16.2946 16.0916C16.2946 16.0917 16.2947 16.0917 16.2947 16.0917C16.3272 16.1289 16.3595 16.1661 16.3916 16.2032C16.549 16.3859 16.7144 16.5852 16.7417 16.8294C16.7722 17.1117 16.5988 17.3842 16.3708 17.5453ZM10.7937 16.0553C10.7519 16.1367 10.6813 16.1982 10.6042 16.243C10.3168 16.4141 9.92172 16.366 9.68085 16.1301C9.48172 15.9357 9.33399 15.4989 9.49939 15.2365C9.6391 15.0106 10.0679 15.0488 10.2734 15.1268C10.495 15.2132 10.6829 15.3943 10.7776 15.6185C10.8371 15.7564 10.8611 15.9225 10.7937 16.0553ZM14.1884 20.4936C14.1579 20.6813 14.0439 20.8457 13.9074 20.9736C13.7147 21.1547 13.4706 21.2776 13.2121 21.3224C13.135 21.3357 13.0515 21.3424 12.9824 21.3008C12.9005 21.251 12.8652 21.1464 12.8508 21.0484C12.8026 20.7411 12.9005 20.3109 13.1527 20.1115C13.3422 19.9604 13.7805 19.8707 13.9893 19.9969C14.1483 20.0933 14.2189 20.3059 14.1884 20.4936ZM10.0743 20.658C9.88639 20.8324 9.62304 20.8823 9.37413 20.9238C9.14771 20.962 8.89881 20.9969 8.69808 20.8806C8.51019 20.771 8.40742 20.5517 8.36085 20.3341C8.29019 20.0036 8.33516 19.6382 8.52946 19.3658C8.70611 19.1199 8.9807 19.0136 9.26172 18.9555C9.62143 18.8841 9.87034 18.9953 10.0743 19.3093C10.328 19.6996 10.4597 20.3026 10.0743 20.658ZM6.19618 18.4007C6.06611 18.6 5.73692 18.6366 5.53458 18.5685C5.31779 18.497 5.14115 18.3193 5.03998 18.1084C4.93721 17.8974 4.90349 17.6566 4.9083 17.4207C4.91312 17.2214 4.95969 16.9988 5.12188 16.8925C5.2648 16.7978 5.45589 16.8244 5.61166 16.8925C5.89429 17.0171 6.12071 17.2662 6.22348 17.5652C6.30217 17.7978 6.3375 18.1798 6.19618 18.399V18.4007Z" fill="#FF6D79"/>
<path fill-rule="evenodd" clip-rule="evenodd" d="M4.83123 6.90977C4.88101 6.93469 5.11385 7.01442 5.45911 7.08916L6.68597 6.4314C6.78071 6.37991 6.8867 6.35333 6.99429 6.35333C7.24319 6.35333 7.47122 6.49618 7.58684 6.72706C7.67034 6.8915 7.6848 7.0792 7.6318 7.25527C7.57721 7.43133 7.45998 7.57584 7.301 7.66055L7.04888 7.7951L7.37969 8.79337C7.75385 8.59737 8.14567 8.42794 8.54874 8.28344C8.94859 8.14225 9.35968 8.0293 9.77399 7.94625L9.44158 6.94299L9.20231 6.98784C9.16377 6.99615 9.12362 6.99947 9.08348 6.99947C8.7591 6.99947 8.4829 6.76028 8.42509 6.43306C8.35925 6.05601 8.60012 5.69557 8.96304 5.62747L9.79968 5.46801H9.80289L10.3216 5.37167C10.5448 5.09926 10.6797 4.8933 10.7134 4.82519C10.7825 4.51292 11.0506 4.28868 11.3654 4.28868C11.4023 4.28868 11.4392 4.29201 11.4762 4.29699C11.823 4.36011 12.0639 4.69065 12.0318 5.04611C12.0912 5.03116 12.149 5.01455 12.202 4.99462C13.1864 4.64746 13.7131 3.53458 13.3775 2.51638C13.1157 1.72573 12.3979 1.19587 11.5902 1.19587C11.383 1.19587 11.1791 1.23075 10.9816 1.30051C10.654 1.41678 10.3649 1.62275 10.1449 1.89516C10.0213 2.04631 9.84304 2.136 9.65355 2.14265H9.62946C9.45122 2.14265 9.27779 2.06624 9.15253 1.93336C8.62742 1.37526 7.89034 1.05468 7.13078 1.05468C6.82407 1.05468 6.52217 1.10617 6.23312 1.20749C5.21181 1.5696 4.47312 2.5197 4.35108 3.62926C4.3286 3.82526 4.22904 3.99967 4.07648 4.11262C3.95926 4.19899 3.82437 4.24384 3.68626 4.24384C3.63809 4.24384 3.58991 4.23719 3.54335 4.22723C3.41167 4.19733 3.27678 4.18238 3.14189 4.18238C2.93473 4.18238 2.72919 4.21726 2.53167 4.28702C2.05313 4.45645 1.66773 4.80692 1.44612 5.27533C1.22452 5.74208 1.1924 6.27194 1.35459 6.76693C1.51678 7.25859 1.85722 7.65723 2.30846 7.88811C2.57021 8.021 2.84962 8.08743 3.13707 8.08743C3.34422 8.08743 3.55137 8.05255 3.7505 7.98113C3.8051 7.96286 3.8597 7.9396 3.9159 7.91469C3.8067 7.7951 3.74247 7.63896 3.73444 7.46954C3.72802 7.28516 3.79064 7.1091 3.91108 6.97289C4.03794 6.83004 4.2178 6.74865 4.40407 6.74865C4.56145 6.74865 4.71239 6.80513 4.83123 6.90977Z" fill="#FF6D79"/>
</svg>
