<svg width="55" height="68" viewBox="0 0 55 68" fill="none" xmlns="http://www.w3.org/2000/svg">
<path d="M16.2767 22.9877C16.4261 22.9549 16.5575 22.8801 16.6662 22.7819L16.2767 22.9877Z" fill="#FF6D79"/>
<path d="M30.3125 17.9645C30.3125 17.9645 30.3487 17.9692 30.3668 17.9692C30.5027 17.9692 30.6431 17.9411 30.7699 17.8803L30.3125 17.9645ZM16.2767 22.9877C16.4261 22.9549 16.5575 22.8801 16.6662 22.7819L16.2767 22.9877Z" fill="#FF6D79"/>
<path d="M53.5107 37.641L53.0216 36.1396L51.9029 37.2247C51.6492 37.4773 51.3503 37.6643 51.0197 37.7766C49.6972 38.2443 48.1527 37.4539 47.3375 35.8964L46.9027 35.0592L46.0603 35.4568C45.9199 35.5269 45.7614 35.5877 45.6028 35.6438C42.8084 36.6354 39.6787 34.8768 38.637 31.7245C38.3064 30.7236 38.2113 29.6572 38.3653 28.6423L38.4876 27.8565L37.772 27.5525C36.9975 27.2157 35.9875 26.561 35.5844 25.3402C35.444 24.9193 35.3942 24.475 35.4304 24.0213L35.521 23.0017L34.5336 22.9175C33.3787 22.824 32.2238 22.8146 31.0688 22.8941L29.4882 18.1188L30.3125 17.9645L30.7699 17.8803L34.5608 17.1647H34.588C34.588 17.1647 34.6242 17.1553 34.6378 17.1507C34.982 17.0805 35.3172 16.9823 35.6433 16.87C39.9188 15.3593 42.206 10.5466 40.7431 6.13146C39.2847 1.7163 34.6197 -0.650302 30.3442 0.860395C29.2526 1.24392 28.2608 1.86129 27.4274 2.66107C26.1592 1.54793 24.6601 0.748145 23.0341 0.327208C21.0232 -0.187271 18.9171 -0.0937292 16.9515 0.598479C14.9813 1.29536 13.2602 2.5535 11.9785 4.22789C10.9413 5.58892 10.2257 7.1651 9.8815 8.84417C8.74921 8.74128 7.59881 8.88159 6.50728 9.26979C4.43747 9.99941 2.76621 11.5195 1.80603 13.5446C0.841327 15.5792 0.696395 17.8709 1.40294 20.0084C2.11402 22.1458 3.58599 23.8716 5.54711 24.8679C6.68845 25.4478 7.91585 25.7378 9.1523 25.7378C10.0445 25.7378 10.9368 25.5834 11.8064 25.2794C12.1279 25.1625 12.4495 25.0269 12.762 24.8679C12.7756 24.8632 12.7892 24.8538 12.8073 24.8491L16.2721 22.9923L16.6616 22.7819L17.3093 22.4358L18.8854 27.1924C15.7196 29.3812 13.1244 32.3138 11.3218 35.7701C8.50011 41.2002 7.9702 47.2851 9.83167 52.9023C11.6886 58.5241 15.715 63.0048 21.1636 65.507C24.1574 66.8867 27.3776 67.579 30.6431 67.579C33.3017 67.579 35.9829 67.1206 38.5917 66.1992C44.38 64.16 49.122 60.0769 51.9346 54.6983C54.7608 49.3056 55.3133 43.2488 53.5062 37.641H53.5107ZM15.6969 19.9616C14.7231 19.7511 14.0664 19.5266 13.926 19.4565C13.5909 19.1618 13.1651 19.0028 12.7213 19.0028C12.1959 19.0028 11.6886 19.232 11.3308 19.6342C10.9911 20.0177 10.8145 20.5135 10.8326 21.0326C10.8553 21.5097 11.0364 21.9494 11.3444 22.2861C11.1859 22.3563 11.0319 22.4217 10.8779 22.4732C10.3163 22.6743 9.73203 22.7725 9.14777 22.7725C8.33706 22.7725 7.54899 22.5854 6.81074 22.2113C5.53805 21.5612 4.57787 20.4387 4.12043 19.0542C3.66298 17.6605 3.75357 16.1685 4.37859 14.8542C5.00361 13.5353 6.0906 12.5484 7.44029 12.0714C7.99737 11.8749 8.5771 11.7767 9.16136 11.7767C9.54181 11.7767 9.92226 11.8188 10.2936 11.903C10.425 11.931 10.5609 11.9498 10.6967 11.9498C11.0862 11.9498 11.4667 11.8235 11.7973 11.5803C12.2276 11.2622 12.5084 10.7711 12.5718 10.2192C12.916 7.09494 14.9994 4.41965 17.88 3.40005C18.6952 3.11475 19.5467 2.96976 20.4118 2.96976C22.554 2.96976 24.6329 3.87244 26.1139 5.44393C26.4672 5.8181 26.9564 6.03325 27.4591 6.03325H27.527C28.0615 6.01454 28.5642 5.76198 28.913 5.33636C29.5334 4.56932 30.3487 3.98936 31.2726 3.66197C31.8297 3.46553 32.4049 3.36731 32.9892 3.36731C35.2673 3.36731 37.2919 4.8593 38.0301 7.08559C38.9767 9.95264 37.4911 13.0863 34.7148 14.0638C34.5653 14.1199 34.4023 14.1667 34.2347 14.2088C34.3253 13.2079 33.6459 12.2772 32.6676 12.0994C32.5634 12.0854 32.4593 12.076 32.3551 12.076C31.4674 12.076 30.711 12.7074 30.5163 13.5867C30.4212 13.7785 30.0407 14.3585 29.4112 15.1255L27.9482 15.3968H27.9392L25.5795 15.8458C24.5559 16.0375 23.8765 17.0524 24.0622 18.1141C24.2253 19.0355 25.0043 19.709 25.9192 19.709C26.0324 19.709 26.1456 19.6997 26.2543 19.6763L26.9292 19.55L27.8667 22.375C26.6982 22.6088 25.5387 22.9269 24.411 23.3244C23.2742 23.7313 22.1691 24.2084 21.1138 24.7603L20.1808 21.9494L20.8918 21.5705C21.3402 21.332 21.6709 20.9251 21.8248 20.4293C21.9743 19.9335 21.9335 19.405 21.698 18.942C21.3719 18.2919 20.7288 17.8896 20.0268 17.8896C19.7233 17.8896 19.4244 17.9645 19.1572 18.1095L15.6969 19.9616ZM37.6678 63.3976C35.376 64.2068 33.0118 64.6184 30.6476 64.6184C27.7444 64.6184 24.9454 64.0057 22.3366 62.8083C17.6218 60.6335 14.1479 56.7749 12.5492 51.9435C9.81356 43.6791 13.2784 34.3764 20.987 29.3158C21.0549 29.2783 21.1228 29.2316 21.1862 29.1848C22.5767 28.2962 24.0713 27.5665 25.6293 27.0146C27.2009 26.4627 28.8133 26.0932 30.4166 25.9202H30.4529L30.5163 25.9108C30.5304 25.9084 30.5446 25.9072 30.5594 25.906C30.573 25.9049 30.5871 25.9037 30.6023 25.9015H30.9601L30.9918 25.8641C31.5217 25.822 32.0652 25.8033 32.6133 25.8033H32.7265C32.7673 25.9716 32.8125 26.1353 32.8669 26.299C33.3107 27.6414 34.1894 28.7779 35.4259 29.6057C35.4213 30.6487 35.5889 31.6777 35.9241 32.6786C37.1515 36.3875 40.3989 38.8851 44.0086 38.8851C44.5974 38.8851 45.1771 38.8149 45.7478 38.6839C46.9344 40.0637 48.5785 40.8728 50.2452 40.8728C50.6166 40.8728 50.988 40.8307 51.3458 40.7512C53.162 50.1849 47.3149 59.9974 37.6678 63.3976Z" fill="#FF6D79"/>
<path d="M30.3125 17.9645C30.3125 17.9645 30.3487 17.9692 30.3668 17.9692C30.5027 17.9692 30.6431 17.9411 30.7699 17.8803L30.3125 17.9645Z" fill="#FF6D79"/>
<path fill-rule="evenodd" clip-rule="evenodd" d="M30.6476 64.6184C33.0118 64.6184 35.376 64.2068 37.6678 63.3976C47.3149 59.9974 53.162 50.1849 51.3458 40.7512C50.988 40.8307 50.6166 40.8728 50.2452 40.8728C48.5785 40.8728 46.9344 40.0637 45.7478 38.6839C45.1771 38.8149 44.5974 38.8851 44.0086 38.8851C40.3989 38.8851 37.1515 36.3875 35.9241 32.6786C35.5889 31.6777 35.4213 30.6487 35.4259 29.6057C34.1894 28.7779 33.3107 27.6414 32.8669 26.299C32.8125 26.1353 32.7673 25.9716 32.7265 25.8033H32.6133C32.0652 25.8033 31.5217 25.822 30.9918 25.8641L30.9601 25.9015H30.6023C30.5871 25.9037 30.573 25.9049 30.5594 25.906C30.5446 25.9072 30.5304 25.9084 30.5163 25.9108L30.4529 25.9202H30.4166C28.8133 26.0932 27.2009 26.4627 25.6293 27.0146C24.0713 27.5665 22.5767 28.2962 21.1862 29.1848C21.1228 29.2316 21.0549 29.2783 20.987 29.3158C13.2784 34.3764 9.81356 43.6791 12.5492 51.9435C14.1479 56.7749 17.6218 60.6335 22.3366 62.8083C24.9454 64.0057 27.7444 64.6184 30.6476 64.6184ZM20.6291 37.4866C20.602 38.0338 20.5703 38.5904 20.4072 39.1142C20.2487 39.6427 19.9407 40.1385 19.4787 40.4098C18.8265 40.798 18.0068 40.667 17.2866 40.4378C16.7658 40.2741 16.254 40.0543 15.8237 39.7129C15.3935 39.3668 15.0492 38.8804 14.9541 38.3285C14.8364 37.6316 15.1217 36.9113 15.561 36.3735C16.0004 35.8403 16.5756 35.4193 17.1779 35.12C17.3205 35.0492 17.4545 34.9716 17.5855 34.8958C17.9998 34.6559 18.3849 34.4329 18.9217 34.4933C19.5467 34.5634 20.1264 34.9797 20.4027 35.5597C20.6835 36.1443 20.6608 36.8318 20.6291 37.4866ZM29.8958 34.4418C29.7101 34.975 29.3206 35.4568 28.7997 35.6345C27.4364 36.1022 26.8114 34.4652 27.4319 33.4269C27.7625 32.8703 28.306 32.4915 28.8314 32.1314C29.0851 31.9536 29.4021 31.7712 29.6829 31.9022C29.9818 32.0331 30.0543 32.4307 30.0724 32.7628C30.0996 33.3287 30.086 33.9086 29.8958 34.4418ZM38.329 41.8269C38.0573 42.5519 37.2375 43.0617 36.5219 42.8185C36.0962 42.6782 35.7746 42.3134 35.53 41.9252C34.8914 40.9336 34.6695 39.5726 35.6478 38.726C36.5174 37.973 37.4413 38.8383 37.9712 39.624C38.4015 40.2601 38.5963 41.102 38.329 41.8269ZM46.4724 49.4038C45.8339 49.8574 45.0642 50.0585 44.3124 50.2549L44.312 50.255C43.5964 50.4374 42.8219 50.6152 42.1426 50.3299C41.7078 50.1475 41.359 49.7873 41.1099 49.3758C40.5076 48.3702 40.503 47.0185 41.1009 46.0083C41.5266 45.2927 42.215 44.7688 42.9578 44.4227C43.0001 44.4028 43.0456 44.3809 43.0938 44.3577C43.645 44.0926 44.5531 43.6558 45.082 43.9784C45.2409 44.0762 45.3645 44.2391 45.4829 44.3952C45.5231 44.4482 45.5627 44.5004 45.6028 44.549C45.7903 44.7744 45.9829 44.9962 46.1754 45.2166C46.2028 45.248 46.2302 45.2793 46.2576 45.3107C46.2577 45.3108 46.2578 45.3109 46.2579 45.311C46.3494 45.4157 46.4408 45.5202 46.5313 45.6247C46.9752 46.1392 47.4417 46.7005 47.5187 47.388C47.6047 48.1831 47.1156 48.9501 46.4724 49.4038ZM30.7427 45.2085C30.625 45.4376 30.4257 45.6107 30.2083 45.737C29.3976 46.2187 28.2834 46.0831 27.604 45.4189C27.0424 44.8717 26.6257 43.6417 27.0922 42.9027C27.4863 42.2666 28.6955 42.3742 29.2753 42.594C29.9003 42.8372 30.4302 43.347 30.6974 43.9784C30.865 44.3666 30.9329 44.8343 30.7427 45.2085ZM40.3173 57.7056C40.2313 58.2341 39.9097 58.6972 39.5247 59.0573C38.9812 59.5671 38.2928 59.9132 37.5636 60.0395C37.3462 60.0769 37.1107 60.0956 36.9159 59.9787C36.685 59.8384 36.5853 59.5437 36.5446 59.2678C36.4087 58.4025 36.685 57.1911 37.396 56.6299C37.9305 56.2043 39.1669 55.9517 39.7557 56.3072C40.2041 56.5784 40.4034 57.1771 40.3173 57.7056ZM28.7137 58.1687C28.1838 58.6598 27.441 58.8001 26.739 58.917C26.1003 59.0246 25.3983 59.1228 24.8322 58.7954C24.3023 58.4867 24.0124 57.8693 23.8811 57.2566C23.6818 56.3259 23.8086 55.2969 24.3566 54.5299C24.8548 53.8377 25.6293 53.5384 26.4219 53.3747C27.4364 53.1735 28.1385 53.4869 28.7137 54.3709C29.4293 55.47 29.8007 57.1678 28.7137 58.1687ZM17.7758 51.8125C17.4089 52.3738 16.4804 52.4767 15.9098 52.2849C15.2983 52.0838 14.8001 51.5833 14.5148 50.9893C14.2249 50.3954 14.1298 49.7172 14.1434 49.053C14.157 48.4918 14.2883 47.865 14.7458 47.5657C15.1489 47.2991 15.6879 47.374 16.1272 47.5657C16.9243 47.9165 17.5629 48.6181 17.8528 49.4599C18.0747 50.1147 18.1743 51.1905 17.7758 51.8078V51.8125Z" fill="#FF6D79"/>
<path fill-rule="evenodd" clip-rule="evenodd" d="M13.926 19.4565C14.0664 19.5266 14.7231 19.7511 15.6969 19.9616L19.1572 18.1095C19.4244 17.9645 19.7233 17.8896 20.0268 17.8896C20.7288 17.8896 21.3719 18.2919 21.698 18.942C21.9335 19.405 21.9743 19.9335 21.8248 20.4293C21.6709 20.9251 21.3402 21.332 20.8918 21.5705L20.1808 21.9494L21.1138 24.7603C22.1691 24.2084 23.2742 23.7313 24.411 23.3244C25.5387 22.9269 26.6982 22.6088 27.8667 22.375L26.9292 19.55L26.2543 19.6763C26.1456 19.6997 26.0324 19.709 25.9192 19.709C25.0043 19.709 24.2253 19.0355 24.0622 18.1141C23.8765 17.0524 24.5559 16.0375 25.5795 15.8458L27.9392 15.3968H27.9482L29.4112 15.1255C30.0407 14.3585 30.4212 13.7785 30.5163 13.5867C30.711 12.7074 31.4674 12.076 32.3551 12.076C32.4593 12.076 32.5634 12.0854 32.6676 12.0994C33.6459 12.2772 34.3253 13.2079 34.2347 14.2088C34.4023 14.1667 34.5653 14.1199 34.7148 14.0638C37.4911 13.0863 38.9767 9.95264 38.0301 7.08559C37.2919 4.8593 35.2673 3.36731 32.9892 3.36731C32.4049 3.36731 31.8297 3.46553 31.2726 3.66197C30.3487 3.98936 29.5334 4.56932 28.913 5.33636C28.5642 5.76198 28.0615 6.01454 27.527 6.03325H27.4591C26.9564 6.03325 26.4672 5.8181 26.1139 5.44393C24.6329 3.87244 22.554 2.96976 20.4118 2.96976C19.5467 2.96976 18.6952 3.11475 17.88 3.40005C14.9994 4.41965 12.916 7.09494 12.5718 10.2192C12.5084 10.7711 12.2276 11.2622 11.7973 11.5803C11.4667 11.8235 11.0862 11.9498 10.6967 11.9498C10.5609 11.9498 10.425 11.931 10.2936 11.903C9.92226 11.8188 9.54181 11.7767 9.16136 11.7767C8.5771 11.7767 7.99737 11.8749 7.44029 12.0714C6.0906 12.5484 5.00361 13.5353 4.37859 14.8542C3.75357 16.1685 3.66298 17.6605 4.12043 19.0542C4.57787 20.4387 5.53805 21.5612 6.81074 22.2113C7.54899 22.5854 8.33706 22.7725 9.14777 22.7725C9.73203 22.7725 10.3163 22.6743 10.8779 22.4732C11.0319 22.4217 11.1859 22.3563 11.3444 22.2861C11.0364 21.9494 10.8553 21.5097 10.8326 21.0326C10.8145 20.5135 10.9911 20.0177 11.3308 19.6342C11.6886 19.232 12.1959 19.0028 12.7213 19.0028C13.1651 19.0028 13.5909 19.1618 13.926 19.4565Z" fill="#FF6D79"/>
</svg>
